# xmcd CD database file
#
# Track frame offsets:
#	150
#	17567
#	33580
#
# Disc length: 728 seconds
#
# Revision: 0
# Processed by: cddbd v1.5.1PL0 Copyright (c) Steve Scherf et al.
# Submitted via: CDex 1.51
#
DISCID=1a02d603
DTITLE=氷室京介 - DEAR ALGERNON
DYEAR=1988
DGENRE=J-POP
TTITLE0=DEAR ALGERNON
TTITLE1=SUFFRAGETTE CITY
TTITLE2=たどりついたらいつも雨ふり
EXTD=YEAR: 1988
EXTT0=
EXTT1=
EXTT2=
PLAYORDER=
